<!--

https://github.com/datalog/qrcode-svg

--><svg viewBox="0 0 37 37" width="256" height="256" fill="#000000" shape-rendering="crispEdges" xmlns="http://www.w3.org/2000/svg" version="1.1"><path transform="matrix(1,0,0,1,4,4)" d="M24,28h3v1h-3v-1zM21,28h1v1h-1v-1zM19,28h1v1h-1v-1zM17,28h1v1h-1v-1zM15,28h1v1h-1v-1zM13,28h1v1h-1v-1zM8,28h2v1h-2v-1zM0,28h7v1h-7v-1zM27,27h1v1h-1v-1zM25,27h1v1h-1v-1zM22,27h2v1h-2v-1zM20,27h1v1h-1v-1zM18,27h1v1h-1v-1zM15,27h2v1h-2v-1zM12,27h2v1h-2v-1zM9,27h2v1h-2v-1zM6,27h1v1h-1v-1zM0,27h1v1h-1v-1zM20,26h8v1h-8v-1zM17,26h1v1h-1v-1zM15,26h1v1h-1v-1zM12,26h2v1h-2v-1zM8,26h3v1h-3v-1zM6,26h1v1h-1v-1zM2,26h3v1h-3v-1zM0,26h1v1h-1v-1zM25,25h4v1h-4v-1zM16,25h4v1h-4v-1zM11,25h3v1h-3v-1zM8,25h2v1h-2v-1zM6,25h1v1h-1v-1zM2,25h3v1h-3v-1zM0,25h1v1h-1v-1zM26,24h1v1h-1v-1zM20,24h5v1h-5v-1zM17,24h1v1h-1v-1zM14,24h2v1h-2v-1zM8,24h4v1h-4v-1zM6,24h1v1h-1v-1zM2,24h3v1h-3v-1zM0,24h1v1h-1v-1zM24,23h1v1h-1v-1zM19,23h2v1h-2v-1zM15,23h2v1h-2v-1zM13,23h1v1h-1v-1zM8,23h2v1h-2v-1zM6,23h1v1h-1v-1zM0,23h1v1h-1v-1zM24,22h3v1h-3v-1zM22,22h1v1h-1v-1zM19,22h2v1h-2v-1zM12,22h5v1h-5v-1zM10,22h1v1h-1v-1zM0,22h7v1h-7v-1zM24,21h5v1h-5v-1zM20,21h1v1h-1v-1zM18,21h1v1h-1v-1zM16,21h1v1h-1v-1zM10,21h5v1h-5v-1zM8,21h1v1h-1v-1zM26,20h3v1h-3v-1zM19,20h6v1h-6v-1zM15,20h3v1h-3v-1zM11,20h1v1h-1v-1zM8,20h1v1h-1v-1zM6,20h1v1h-1v-1zM2,20h1v1h-1v-1zM0,20h1v1h-1v-1zM27,19h1v1h-1v-1zM24,19h1v1h-1v-1zM18,19h3v1h-3v-1zM14,19h1v1h-1v-1zM11,19h1v1h-1v-1zM7,19h2v1h-2v-1zM2,19h4v1h-4v-1zM0,19h1v1h-1v-1zM26,18h1v1h-1v-1zM22,18h3v1h-3v-1zM17,18h2v1h-2v-1zM15,18h1v1h-1v-1zM11,18h1v1h-1v-1zM9,18h1v1h-1v-1zM3,18h5v1h-5v-1zM0,18h1v1h-1v-1zM28,17h1v1h-1v-1zM26,17h1v1h-1v-1zM19,17h6v1h-6v-1zM12,17h1v1h-1v-1zM8,17h1v1h-1v-1zM2,17h3v1h-3v-1zM0,17h1v1h-1v-1zM25,16h2v1h-2v-1zM21,16h1v1h-1v-1zM19,16h1v1h-1v-1zM17,16h1v1h-1v-1zM14,16h1v1h-1v-1zM12,16h1v1h-1v-1zM10,16h1v1h-1v-1zM6,16h2v1h-2v-1zM27,15h1v1h-1v-1zM23,15h2v1h-2v-1zM18,15h2v1h-2v-1zM16,15h1v1h-1v-1zM8,15h6v1h-6v-1zM4,15h2v1h-2v-1zM1,15h1v1h-1v-1zM25,14h2v1h-2v-1zM20,14h2v1h-2v-1zM17,14h1v1h-1v-1zM11,14h5v1h-5v-1zM5,14h5v1h-5v-1zM2,14h2v1h-2v-1zM28,13h1v1h-1v-1zM16,13h9v1h-9v-1zM13,13h2v1h-2v-1zM11,13h1v1h-1v-1zM9,13h1v1h-1v-1zM4,13h1v1h-1v-1zM1,13h1v1h-1v-1zM25,12h2v1h-2v-1zM20,12h1v1h-1v-1zM17,12h1v1h-1v-1zM15,12h1v1h-1v-1zM12,12h1v1h-1v-1zM9,12h2v1h-2v-1zM4,12h4v1h-4v-1zM2,12h1v1h-1v-1zM0,12h1v1h-1v-1zM27,11h1v1h-1v-1zM24,11h2v1h-2v-1zM20,11h2v1h-2v-1zM14,11h1v1h-1v-1zM4,11h2v1h-2v-1zM0,11h1v1h-1v-1zM21,10h3v1h-3v-1zM15,10h3v1h-3v-1zM11,10h2v1h-2v-1zM8,10h2v1h-2v-1zM6,10h1v1h-1v-1zM4,10h1v1h-1v-1zM2,10h1v1h-1v-1zM28,9h1v1h-1v-1zM16,9h9v1h-9v-1zM9,9h3v1h-3v-1zM7,9h1v1h-1v-1zM5,9h1v1h-1v-1zM0,9h2v1h-2v-1zM22,8h5v1h-5v-1zM20,8h1v1h-1v-1zM17,8h1v1h-1v-1zM14,8h1v1h-1v-1zM11,8h2v1h-2v-1zM2,8h5v1h-5v-1zM0,8h1v1h-1v-1zM18,7h2v1h-2v-1zM16,7h1v1h-1v-1zM11,7h3v1h-3v-1zM8,7h1v1h-1v-1zM22,6h7v1h-7v-1zM20,6h1v1h-1v-1zM18,6h1v1h-1v-1zM16,6h1v1h-1v-1zM14,6h1v1h-1v-1zM12,6h1v1h-1v-1zM10,6h1v1h-1v-1zM8,6h1v1h-1v-1zM0,6h7v1h-7v-1zM28,5h1v1h-1v-1zM22,5h1v1h-1v-1zM12,5h6v1h-6v-1zM10,5h1v1h-1v-1zM8,5h1v1h-1v-1zM6,5h1v1h-1v-1zM0,5h1v1h-1v-1zM28,4h1v1h-1v-1zM24,4h3v1h-3v-1zM22,4h1v1h-1v-1zM16,4h5v1h-5v-1zM13,4h1v1h-1v-1zM10,4h2v1h-2v-1zM8,4h1v1h-1v-1zM6,4h1v1h-1v-1zM2,4h3v1h-3v-1zM0,4h1v1h-1v-1zM28,3h1v1h-1v-1zM24,3h3v1h-3v-1zM22,3h1v1h-1v-1zM17,3h2v1h-2v-1zM12,3h1v1h-1v-1zM8,3h2v1h-2v-1zM6,3h1v1h-1v-1zM2,3h3v1h-3v-1zM0,3h1v1h-1v-1zM28,2h1v1h-1v-1zM24,2h3v1h-3v-1zM22,2h1v1h-1v-1zM20,2h1v1h-1v-1zM14,2h3v1h-3v-1zM12,2h1v1h-1v-1zM10,2h1v1h-1v-1zM8,2h1v1h-1v-1zM6,2h1v1h-1v-1zM2,2h3v1h-3v-1zM0,2h1v1h-1v-1zM28,1h1v1h-1v-1zM22,1h1v1h-1v-1zM20,1h1v1h-1v-1zM13,1h4v1h-4v-1zM10,1h2v1h-2v-1zM6,1h1v1h-1v-1zM0,1h1v1h-1v-1zM22,0h7v1h-7v-1zM18,0h3v1h-3v-1zM13,0h1v1h-1v-1zM10,0h2v1h-2v-1zM0,0h7v1h-7v-1z"/></svg>